<svg width="165" height="35" viewBox="0 0 165 35" fill="none" xmlns="http://www.w3.org/2000/svg">
<path d="M159.351 26.6259C162.471 26.6259 165 28.4982 165 30.8113C165 33.1245 162.47 35 159.351 35V26.6259Z" fill="#340B93"/>
<path d="M1.50001 11.6854L12.7934 1.2514C13.6629 0.448215 14.8207 0 16.0248 0H159.349C162.474 0 165 1.87657 165 4.1897V30.8103C165 28.4961 162.477 26.6248 159.351 26.6248H16.0039C14.8119 26.6248 13.6651 26.1872 12.7989 25.3989L1.51322 15.1312C0.487449 14.1977 0.480845 12.6274 1.50001 11.6864V11.6854Z" fill="url(#paint0_linear_2509_19398)"/>
<path d="M36.4503 11.5071H33.9645C33.9313 11.2519 33.8634 11.0215 33.7607 10.8161C33.6579 10.6106 33.522 10.4349 33.353 10.2891C33.1839 10.1432 32.9834 10.0322 32.7514 9.95597C32.5227 9.87642 32.2692 9.83665 31.9908 9.83665C31.4969 9.83665 31.071 9.95762 30.7131 10.1996C30.3584 10.4415 30.085 10.7912 29.8928 11.2486C29.7038 11.706 29.6094 12.2595 29.6094 12.9091C29.6094 13.5852 29.7055 14.152 29.8977 14.6094C30.0933 15.0634 30.3667 15.4065 30.718 15.6385C31.0727 15.8672 31.492 15.9815 31.9759 15.9815C32.2476 15.9815 32.4946 15.9467 32.7166 15.8771C32.942 15.8075 33.1392 15.7064 33.3082 15.5739C33.4806 15.438 33.6214 15.2739 33.7308 15.0817C33.8435 14.8861 33.9214 14.6657 33.9645 14.4205L36.4503 14.4354C36.4072 14.8861 36.2763 15.3303 36.0575 15.7678C35.8421 16.2053 35.5455 16.6046 35.1676 16.9659C34.7898 17.3239 34.3291 17.6089 33.7855 17.821C33.2453 18.0331 32.6255 18.1392 31.9261 18.1392C31.0047 18.1392 30.1795 17.937 29.4503 17.5327C28.7244 17.125 28.151 16.5317 27.7301 15.7528C27.3092 14.974 27.0987 14.026 27.0987 12.9091C27.0987 11.7888 27.3125 10.8393 27.7401 10.0604C28.1676 9.28149 28.746 8.68987 29.4751 8.28551C30.2043 7.88115 31.0213 7.67898 31.9261 7.67898C32.5426 7.67898 33.1127 7.76515 33.6364 7.9375C34.16 8.10653 34.6207 8.35511 35.0185 8.68324C35.4162 9.00805 35.7393 9.40743 35.9879 9.88139C36.2365 10.3554 36.3906 10.8973 36.4503 11.5071ZM49.4686 12.9091C49.4686 14.0294 49.2531 14.9789 48.8223 15.7578C48.3914 16.5367 47.8081 17.1283 47.0723 17.5327C46.3398 17.937 45.5178 18.1392 44.6064 18.1392C43.6916 18.1392 42.868 17.9354 42.1355 17.5277C41.403 17.12 40.8213 16.5284 40.3904 15.7528C39.9629 14.974 39.7491 14.026 39.7491 12.9091C39.7491 11.7888 39.9629 10.8393 40.3904 10.0604C40.8213 9.28149 41.403 8.68987 42.1355 8.28551C42.868 7.88115 43.6916 7.67898 44.6064 7.67898C45.5178 7.67898 46.3398 7.88115 47.0723 8.28551C47.8081 8.68987 48.3914 9.28149 48.8223 10.0604C49.2531 10.8393 49.4686 11.7888 49.4686 12.9091ZM46.9529 12.9091C46.9529 12.2462 46.8585 11.6861 46.6696 11.2287C46.484 10.7713 46.2155 10.425 45.8642 10.1896C45.5162 9.95431 45.0969 9.83665 44.6064 9.83665C44.1191 9.83665 43.6999 9.95431 43.3485 10.1896C42.9972 10.425 42.7271 10.7713 42.5382 11.2287C42.3526 11.6861 42.2598 12.2462 42.2598 12.9091C42.2598 13.572 42.3526 14.1321 42.5382 14.5895C42.7271 15.0469 42.9972 15.3932 43.3485 15.6286C43.6999 15.8639 44.1191 15.9815 44.6064 15.9815C45.0969 15.9815 45.5162 15.8639 45.8642 15.6286C46.2155 15.3932 46.484 15.0469 46.6696 14.5895C46.8585 14.1321 46.9529 13.572 46.9529 12.9091ZM52.9054 7.81818H55.9529L58.5382 14.1222H58.6575L61.2427 7.81818H64.2903V18H61.894V11.7457H61.8095L59.3635 17.9354H57.8322L55.3862 11.7109H55.3017V18H52.9054V7.81818ZM70.2862 7.81818V18H67.8253V7.81818H70.2862ZM82.4966 7.81818V18H80.4086L76.3567 12.1236H76.2921V18H73.8311V7.81818H75.949L79.9561 13.6847H80.0407V7.81818H82.4966ZM92.7259 11.1442C92.6695 10.9354 92.5866 10.7514 92.4773 10.5923C92.3679 10.4299 92.2337 10.2924 92.0746 10.1797C91.9155 10.067 91.7332 9.98248 91.5277 9.92614C91.3222 9.86648 91.0968 9.83665 90.8516 9.83665C90.3577 9.83665 89.9302 9.95597 89.5689 10.1946C89.2109 10.4332 88.9342 10.7812 88.7386 11.2386C88.5431 11.6927 88.4453 12.2446 88.4453 12.8942C88.4453 13.5471 88.5398 14.1039 88.7287 14.5646C88.9176 15.0253 89.1911 15.3767 89.549 15.6186C89.907 15.8606 90.3411 15.9815 90.8516 15.9815C91.3023 15.9815 91.6835 15.9086 91.995 15.7628C92.3099 15.6136 92.5485 15.4032 92.7109 15.1314C92.8733 14.8596 92.9545 14.5398 92.9545 14.1719L93.4119 14.2266H90.9361V12.4318H95.326V13.7791C95.326 14.6906 95.1321 15.4711 94.7443 16.1207C94.3598 16.7704 93.8295 17.2692 93.1534 17.6172C92.4806 17.9652 91.7067 18.1392 90.8317 18.1392C89.8606 18.1392 89.0071 17.9287 88.2713 17.5078C87.5355 17.0869 86.9621 16.487 86.5511 15.7081C86.1402 14.9259 85.9347 13.9979 85.9347 12.924C85.9347 12.0888 86.0589 11.348 86.3075 10.7017C86.5561 10.0521 86.9025 9.50189 87.3466 9.05114C87.794 8.60038 88.3111 8.259 88.8977 8.02699C89.4877 7.79498 90.1224 7.67898 90.8018 7.67898C91.3918 7.67898 91.9403 7.76349 92.4474 7.93253C92.9579 8.10156 93.4086 8.3402 93.7997 8.64844C94.1941 8.95668 94.514 9.32292 94.7592 9.74716C95.0045 10.1714 95.157 10.6371 95.2166 11.1442H92.7259ZM109.288 10.8707C109.255 10.5062 109.107 10.2228 108.845 10.0206C108.587 9.8151 108.217 9.71236 107.737 9.71236C107.419 9.71236 107.153 9.75379 106.941 9.83665C106.729 9.91951 106.57 10.0339 106.464 10.1797C106.358 10.3222 106.303 10.4863 106.3 10.6719C106.293 10.8243 106.323 10.9586 106.389 11.0746C106.459 11.1906 106.558 11.2933 106.688 11.3828C106.82 11.469 106.979 11.5452 107.165 11.6115C107.351 11.6778 107.559 11.7358 107.791 11.7855L108.666 11.9844C109.17 12.0938 109.614 12.2396 109.999 12.4219C110.387 12.6042 110.711 12.8213 110.973 13.0732C111.238 13.325 111.439 13.6151 111.575 13.9432C111.711 14.2713 111.78 14.6392 111.784 15.0469C111.78 15.6899 111.618 16.2417 111.296 16.7024C110.975 17.1631 110.512 17.5161 109.909 17.7614C109.309 18.0066 108.585 18.1293 107.737 18.1293C106.885 18.1293 106.142 18.0017 105.509 17.7464C104.876 17.4912 104.384 17.1035 104.033 16.5831C103.682 16.0627 103.501 15.4048 103.491 14.6094H105.847C105.867 14.9375 105.955 15.2109 106.111 15.4297C106.267 15.6484 106.481 15.8142 106.752 15.9268C107.027 16.0395 107.346 16.0959 107.707 16.0959C108.038 16.0959 108.32 16.0511 108.552 15.9616C108.787 15.8722 108.968 15.7479 109.094 15.5888C109.22 15.4297 109.285 15.2474 109.288 15.0419C109.285 14.8497 109.225 14.6856 109.109 14.5497C108.993 14.4105 108.814 14.2912 108.572 14.1918C108.333 14.089 108.028 13.9946 107.657 13.9084L106.593 13.6598C105.712 13.4576 105.017 13.1312 104.51 12.6804C104.003 12.2263 103.751 11.6132 103.754 10.8409C103.751 10.2112 103.92 9.65933 104.262 9.18537C104.603 8.71141 105.075 8.34186 105.678 8.0767C106.282 7.81155 106.969 7.67898 107.742 7.67898C108.53 7.67898 109.215 7.81321 109.795 8.08168C110.378 8.34683 110.831 8.7197 111.152 9.20028C111.474 9.68087 111.638 10.2377 111.644 10.8707H109.288ZM124.637 12.9091C124.637 14.0294 124.421 14.9789 123.99 15.7578C123.559 16.5367 122.976 17.1283 122.24 17.5327C121.508 17.937 120.686 18.1392 119.774 18.1392C118.86 18.1392 118.036 17.9354 117.303 17.5277C116.571 17.12 115.989 16.5284 115.558 15.7528C115.131 14.974 114.917 14.026 114.917 12.9091C114.917 11.7888 115.131 10.8393 115.558 10.0604C115.989 9.28149 116.571 8.68987 117.303 8.28551C118.036 7.88115 118.86 7.67898 119.774 7.67898C120.686 7.67898 121.508 7.88115 122.24 8.28551C122.976 8.68987 123.559 9.28149 123.99 10.0604C124.421 10.8393 124.637 11.7888 124.637 12.9091ZM122.121 12.9091C122.121 12.2462 122.026 11.6861 121.838 11.2287C121.652 10.7713 121.383 10.425 121.032 10.1896C120.684 9.95431 120.265 9.83665 119.774 9.83665C119.287 9.83665 118.868 9.95431 118.517 10.1896C118.165 10.425 117.895 10.7713 117.706 11.2287C117.521 11.6861 117.428 12.2462 117.428 12.9091C117.428 13.572 117.521 14.1321 117.706 14.5895C117.895 15.0469 118.165 15.3932 118.517 15.6286C118.868 15.8639 119.287 15.9815 119.774 15.9815C120.265 15.9815 120.684 15.8639 121.032 15.6286C121.383 15.3932 121.652 15.0469 121.838 14.5895C122.026 14.1321 122.121 13.572 122.121 12.9091ZM137.683 12.9091C137.683 14.0294 137.468 14.9789 137.037 15.7578C136.606 16.5367 136.023 17.1283 135.287 17.5327C134.555 17.937 133.733 18.1392 132.821 18.1392C131.906 18.1392 131.083 17.9354 130.35 17.5277C129.618 17.12 129.036 16.5284 128.605 15.7528C128.178 14.974 127.964 14.026 127.964 12.9091C127.964 11.7888 128.178 10.8393 128.605 10.0604C129.036 9.28149 129.618 8.68987 130.35 8.28551C131.083 7.88115 131.906 7.67898 132.821 7.67898C133.733 7.67898 134.555 7.88115 135.287 8.28551C136.023 8.68987 136.606 9.28149 137.037 10.0604C137.468 10.8393 137.683 11.7888 137.683 12.9091ZM135.168 12.9091C135.168 12.2462 135.073 11.6861 134.884 11.2287C134.699 10.7713 134.43 10.425 134.079 10.1896C133.731 9.95431 133.312 9.83665 132.821 9.83665C132.334 9.83665 131.915 9.95431 131.563 10.1896C131.212 10.425 130.942 10.7713 130.753 11.2287C130.567 11.6861 130.475 12.2462 130.475 12.9091C130.475 13.572 130.567 14.1321 130.753 14.5895C130.942 15.0469 131.212 15.3932 131.563 15.6286C131.915 15.8639 132.334 15.9815 132.821 15.9815C133.312 15.9815 133.731 15.8639 134.079 15.6286C134.43 15.3932 134.699 15.0469 134.884 14.5895C135.073 14.1321 135.168 13.572 135.168 12.9091ZM149.786 7.81818V18H147.698L143.646 12.1236H143.581V18H141.12V7.81818H143.238L147.245 13.6847H147.33V7.81818H149.786Z" fill="white"/>
<defs>
<linearGradient id="paint0_linear_2509_19398" x1="40.3237" y1="43.4398" x2="186.731" y2="-26.9422" gradientUnits="userSpaceOnUse">
<stop stop-color="#340B93"/>
<stop offset="0.917114" stop-color="#9800FF"/>
</linearGradient>
</defs>
</svg>
