<svg width="35" height="33" viewBox="0 0 35 33" fill="none" xmlns="http://www.w3.org/2000/svg">
<rect width="34.3588" height="33" rx="8" fill="#F0F4F4"/>
<path fill-rule="evenodd" clip-rule="evenodd" d="M28.136 26.2343C28.0723 26.2025 27.5605 25.9501 26.7125 25.6175V13.1263C26.7125 12.8951 26.5316 12.7072 26.3083 12.7072H20.7598C20.7553 12.7292 20.7598 6.40334 20.7598 6.40334C20.7598 6.17998 20.5902 6 20.3672 6H11.7469C11.5235 6 11.3568 6.17998 11.3568 6.40334V11.9129H8.76043C8.53707 11.9129 8.35624 12.0938 8.35624 12.3171V25.1099C7.01835 25.5476 6.28405 25.9332 6.21364 25.9704C6.01676 26.0755 5.94268 26.32 6.04774 26.5166C6.1528 26.7134 6.39728 26.7875 6.59388 26.6825C8.96604 25.4868 12.6381 24.8114 15.3279 24.6438C16.0006 24.5996 18.0663 24.5829 18.3285 24.5953C21.2457 24.7241 24.6408 25.5198 27.774 26.9568C27.9785 27.059 28.2182 26.9723 28.316 26.776C28.4157 26.5765 28.3354 26.3338 28.136 26.234V26.2343ZM14.5339 23.8932C12.317 24.0855 10.5087 24.4756 9.15053 24.8666V12.7069H14.5339V23.8929V23.8932ZM17.9387 12.7072C17.7153 12.7072 17.5345 12.8951 17.5345 13.1263V23.7687C17.5063 23.7678 16.0006 23.7915 15.3282 23.834V12.3171C15.3282 12.0938 15.1474 11.9129 14.924 11.9129H12.1511V6.79429H19.9568C19.9568 6.79429 19.939 12.7072 19.9568 12.7072H17.9387ZM25.9184 25.3201C24.1181 24.6784 21.3859 23.9143 18.3288 23.7861V13.5012H25.9184V25.3198V25.3201ZM15.2489 8.55918C15.2489 8.33611 15.0681 8.11782 14.8447 8.11782H13.4978C13.2744 8.11782 13.0939 8.33582 13.0939 8.55918C13.0939 8.78254 13.2747 9.00055 13.4978 9.00055H14.8447C15.0681 9.00055 15.2489 8.78254 15.2489 8.55918ZM13.2281 10.0596H14.3057C14.5288 10.0596 14.7096 10.2337 14.7096 10.4567C14.7096 10.6798 14.5288 10.8539 14.3057 10.8539H13.2281C13.005 10.8539 12.8242 10.6798 12.8242 10.4567C12.8242 10.2337 13.005 10.0596 13.2281 10.0596ZM23.4651 15.7075H24.812C25.0351 15.7075 25.2162 15.5334 25.2162 15.3103C25.2162 15.0873 25.0354 14.9132 24.812 14.9132H23.4651C23.242 14.9132 23.0612 15.0873 23.0612 15.3103C23.0612 15.5334 23.242 15.7075 23.4651 15.7075ZM22.1183 16.5018H24.8122C25.0355 16.5018 25.2163 16.6758 25.2163 16.8989C25.2163 17.122 25.0352 17.2961 24.8122 17.2961H22.1183C21.8953 17.2961 21.7144 17.122 21.7144 16.8989C21.7144 16.6758 21.8953 16.5018 22.1183 16.5018ZM24.8121 18.0903H21.5794C21.3564 18.0903 21.1753 18.3084 21.1753 18.5317C21.1753 18.7551 21.3561 18.9731 21.5794 18.9731H24.8121C25.0352 18.9731 25.2163 18.7551 25.2163 18.5317C25.2163 18.3084 25.0354 18.0903 24.8121 18.0903ZM22.9262 19.7671H24.8119C25.0353 19.7671 25.2161 19.9412 25.2161 20.1642C25.2161 20.3873 25.035 20.5614 24.8119 20.5614H22.9262C22.7029 20.5614 22.522 20.3873 22.522 20.1642C22.522 19.9412 22.7029 19.7671 22.9262 19.7671ZM24.812 21.6204H23.4651C23.242 21.6204 23.0612 21.7945 23.0612 22.0176C23.0612 22.2406 23.242 22.4147 23.4651 22.4147H24.812C25.0351 22.4147 25.2162 22.2406 25.2162 22.0176C25.2162 21.7945 25.0354 21.6204 24.812 21.6204ZM13.7669 15.1782H12.42C12.1966 15.1782 12.0158 15.0042 12.0158 14.7811C12.0158 14.558 12.1969 14.384 12.42 14.384H13.7669C13.9903 14.384 14.1711 14.558 14.1711 14.7811C14.1711 15.0042 13.99 15.1782 13.7669 15.1782ZM13.7673 15.9722H12.6897C12.4663 15.9722 12.2855 16.1463 12.2855 16.3694C12.2855 16.5925 12.4663 16.7665 12.6897 16.7665H13.7673C13.9904 16.7665 14.1715 16.5925 14.1715 16.3694C14.1715 16.1463 13.9907 15.9722 13.7673 15.9722ZM13.7669 18.3551H12.42C12.1966 18.3551 12.0158 18.181 12.0158 17.958C12.0158 17.7349 12.1969 17.5608 12.42 17.5608H13.7669C13.9903 17.5608 14.1711 17.7349 14.1711 17.958C14.1711 18.181 13.99 18.3551 13.7669 18.3551ZM13.7673 19.2376H12.6897C12.4663 19.2376 12.2855 19.4116 12.2855 19.6347C12.2855 19.8578 12.4663 20.0318 12.6897 20.0318H13.7673C13.9904 20.0318 14.1715 19.8578 14.1715 19.6347C14.1715 19.4116 13.9907 19.2376 13.7673 19.2376ZM12.8662 21.1684L13.6731 21.1751V21.1754C13.8945 21.1667 14.079 21.3599 14.0813 21.583C14.0832 21.806 13.9044 21.9319 13.6813 21.9342L12.8743 21.8855H12.8701C12.649 21.8855 12.4685 21.768 12.4662 21.5463C12.4642 21.323 12.6431 21.1706 12.8662 21.1684ZM19.1549 15.7075H22.3875C22.6106 15.7075 22.7917 15.5334 22.7917 15.3103C22.7917 15.0873 22.6108 14.9132 22.3875 14.9132H19.1549C18.9318 14.9132 18.7507 15.0873 18.7507 15.3103C18.7507 15.5334 18.9315 15.7075 19.1549 15.7075ZM20.2325 17.2961H19.1549C18.9315 17.2961 18.7507 17.122 18.7507 16.8989C18.7507 16.6758 18.9318 16.5018 19.1549 16.5018H20.2325C20.4558 16.5018 20.6367 16.6758 20.6367 16.8989C20.6367 17.122 20.4558 17.2961 20.2325 17.2961ZM19.1549 18.9728H20.2325C20.4558 18.9728 20.6367 18.7548 20.6367 18.5314C20.6367 18.3081 20.4558 18.0901 20.2325 18.0901H19.1549C18.9318 18.0901 18.7507 18.3081 18.7507 18.5314C18.7507 18.7548 18.9315 18.9728 19.1549 18.9728ZM21.8487 20.5614H19.1549C18.9315 20.5614 18.7507 20.3873 18.7507 20.1642C18.7507 19.9412 18.9318 19.7671 19.1549 19.7671H21.8487C22.0717 19.7671 22.2526 19.9412 22.2526 20.1642C22.2526 20.3873 22.0717 20.5614 21.8487 20.5614ZM19.1549 22.4147H22.3875C22.6106 22.4147 22.7917 22.2406 22.7917 22.0176C22.7917 21.7945 22.6108 21.6204 22.3875 21.6204H19.1549C18.9318 21.6204 18.7507 21.7945 18.7507 22.0176C18.7507 22.2406 18.9315 22.4147 19.1549 22.4147ZM11.0732 15.1782H10.2651C10.0417 15.1782 9.86092 15.0042 9.86092 14.7811C9.86092 14.558 10.042 14.384 10.2651 14.384H11.0732C11.2966 14.384 11.4774 14.558 11.4774 14.7811C11.4774 15.0042 11.2963 15.1782 11.0732 15.1782ZM10.2651 16.7665H11.3427C11.5658 16.7665 11.7466 16.5925 11.7466 16.3694C11.7466 16.1463 11.5658 15.9722 11.3427 15.9722H10.2651C10.042 15.9722 9.86092 16.1463 9.86092 16.3694C9.86092 16.5925 10.0417 16.7665 10.2651 16.7665ZM11.0732 18.3551H10.2651C10.0417 18.3551 9.86092 18.181 9.86092 17.958C9.86092 17.7349 10.042 17.5608 10.2651 17.5608H11.0732C11.2966 17.5608 11.4774 17.7349 11.4774 17.958C11.4774 18.181 11.2963 18.3551 11.0732 18.3551ZM10.2651 20.0318H11.3427C11.5658 20.0318 11.7466 19.8578 11.7466 19.6347C11.7466 19.4116 11.5658 19.2376 11.3427 19.2376H10.2651C10.042 19.2376 9.86092 19.4116 9.86092 19.6347C9.86092 19.8578 10.0417 20.0318 10.2651 20.0318ZM11.612 21.8852H10.2651C10.0417 21.8852 9.86092 21.7111 9.86092 21.488C9.86092 21.265 10.042 21.0909 10.2651 21.0909H11.612C11.8351 21.0909 12.0159 21.265 12.0159 21.488C12.0159 21.7111 11.8351 21.8852 11.612 21.8852ZM18.8857 8.1181H16.1919C15.9688 8.1181 15.7877 8.33611 15.7877 8.55946C15.7877 8.78282 15.9685 9.00083 16.1919 9.00083H18.8857C19.1088 9.00083 19.2899 8.78282 19.2899 8.55946C19.2899 8.33611 19.109 8.1181 18.8857 8.1181ZM15.3835 10.0596H18.8857C19.109 10.0596 19.2899 10.2337 19.2899 10.4567C19.2899 10.6798 19.1088 10.8539 18.8857 10.8539H15.3835C15.1601 10.8539 14.9793 10.6798 14.9793 10.4567C14.9793 10.2337 15.1604 10.0596 15.3835 10.0596Z" fill="#747A80"/>
</svg>
